<svg width="21" height="21" viewBox="0 0 21 21" fill="none" xmlns="http://www.w3.org/2000/svg">
<path d="M11.74 1.31995C11.6463 1.21683 11.532 1.13444 11.4046 1.07806C11.2772 1.02168 11.1394 0.992554 11 0.992554C10.8607 0.992554 10.7228 1.02168 10.5954 1.07806C10.468 1.13444 10.3537 1.21683 10.26 1.31995L1.26 11.3199C1.12729 11.463 1.03935 11.6418 1.00702 11.8343C0.974682 12.0268 0.999371 12.2245 1.07804 12.4031C1.15671 12.5817 1.28592 12.7334 1.44975 12.8394C1.61357 12.9455 1.80485 13.0013 2 12.9999H4V19.9999C4 20.2652 4.10536 20.5195 4.2929 20.7071C4.48043 20.8946 4.73479 20.9999 5 20.9999H17C17.2652 20.9999 17.5196 20.8946 17.7071 20.7071C17.8946 20.5195 18 20.2652 18 19.9999V12.9999H20C20.2652 12.9999 20.5196 12.8946 20.7071 12.7071C20.8946 12.5195 21 12.2652 21 11.9999C21.0019 11.7487 20.909 11.5059 20.74 11.3199L11.74 1.31995Z" fill="white"/>
</svg>
